<mxfile>
    <diagram id="AmlEpA3_1aYCrx1T0YUR" name="Page-1">
        <mxGraphModel dx="972" dy="757" grid="0" gridSize="10" guides="1" tooltips="1" connect="1" arrows="1" fold="1" page="1" pageScale="1" pageWidth="1169" pageHeight="827" background="#ffffff" math="0" shadow="0">
            <root>
                <mxCell id="0"/>
                <mxCell id="1" parent="0"/>
                <mxCell id="2" value="&lt;font style=&quot;font-size: 16px&quot;&gt;Elève&lt;br&gt;Parent d'élève&lt;/font&gt;" style="shape=umlActor;verticalLabelPosition=bottom;verticalAlign=top;html=1;strokeWidth=3;strokeColor=#C64754;fillColor=#f9a6ae;fontColor=#830C17;fontStyle=1" parent="1" vertex="1">
                    <mxGeometry x="80" y="297" width="30" height="60" as="geometry"/>
                </mxCell>
                <mxCell id="9" value="&lt;font size=&quot;1&quot; color=&quot;#830c17&quot;&gt;&lt;span style=&quot;font-size: 28px&quot;&gt;&lt;b&gt;Package &lt;/b&gt;&lt;i style=&quot;font-weight: bold&quot;&gt;&quot;Gérer son profil&quot;&lt;/i&gt; (ébauche)&lt;/span&gt;&lt;/font&gt;" style="text;html=1;strokeColor=none;fillColor=none;align=left;verticalAlign=middle;whiteSpace=wrap;rounded=0;fontColor=#660000;" parent="1" vertex="1">
                    <mxGeometry x="35" y="60" width="502" height="20" as="geometry"/>
                </mxCell>
                <mxCell id="10" value="" style="rounded=1;whiteSpace=wrap;html=1;fontColor=#660000;strokeWidth=3;strokeColor=none;fillColor=#F9A6AE;gradientColor=#fee7ea;gradientDirection=north;arcSize=2;" parent="1" vertex="1">
                    <mxGeometry x="241" y="140" width="680" height="400" as="geometry"/>
                </mxCell>
                <mxCell id="12" value="&lt;font style=&quot;font-size: 16px&quot;&gt;Tuteur&lt;br&gt;&lt;/font&gt;" style="shape=umlActor;verticalLabelPosition=bottom;verticalAlign=top;html=1;strokeWidth=3;strokeColor=#C64754;fillColor=#f9a6ae;fontColor=#830C17;fontStyle=1" parent="1" vertex="1">
                    <mxGeometry x="80" y="450" width="30" height="60" as="geometry"/>
                </mxCell>
                <mxCell id="13" value="&lt;font color=&quot;#830c17&quot;&gt;&lt;span style=&quot;font-size: 20px&quot;&gt;&lt;b&gt;Appli web&lt;i&gt; Learn@Home&lt;/i&gt;&lt;/b&gt;&lt;/span&gt;&lt;/font&gt;" style="text;html=1;strokeColor=none;fillColor=none;align=center;verticalAlign=middle;whiteSpace=wrap;rounded=0;fontColor=#660000;" parent="1" vertex="1">
                    <mxGeometry x="657" y="149" width="250" height="20" as="geometry"/>
                </mxCell>
                <mxCell id="19" value="&lt;font&gt;&lt;b&gt;&lt;font style=&quot;font-size: 14px&quot;&gt;Modifier son profil&lt;/font&gt;&lt;br&gt;&lt;/b&gt;&lt;/font&gt;" style="ellipse;whiteSpace=wrap;html=1;rounded=1;strokeWidth=3;fontColor=#0e2723;strokeColor=none;fillColor=#defefa;gradientColor=#7dbbb2;" parent="1" vertex="1">
                    <mxGeometry x="485" y="380" width="200" height="70" as="geometry"/>
                </mxCell>
                <mxCell id="31" value="" style="endArrow=none;html=1;fontColor=#0e2723;strokeWidth=3;strokeColor=#830C17;exitX=0;exitY=0.5;exitDx=0;exitDy=0;" parent="1" source="19" edge="1">
                    <mxGeometry width="50" height="50" relative="1" as="geometry">
                        <mxPoint x="338.5" y="312" as="sourcePoint"/>
                        <mxPoint x="120" y="330" as="targetPoint"/>
                    </mxGeometry>
                </mxCell>
                <mxCell id="37" value="&lt;font style=&quot;font-size: 14px&quot;&gt;&lt;b&gt;Ajouter une &lt;br&gt;photo à son profil&lt;br&gt;&lt;/b&gt;&lt;/font&gt;" style="ellipse;whiteSpace=wrap;html=1;rounded=1;strokeWidth=3;fontColor=#0e2723;strokeColor=none;fillColor=#defefa;gradientColor=#7dbbb2;" vertex="1" parent="1">
                    <mxGeometry x="485" y="220" width="200" height="70" as="geometry"/>
                </mxCell>
                <mxCell id="38" value="" style="endArrow=none;html=1;fontColor=#0e2723;strokeWidth=3;strokeColor=#830C17;exitX=0;exitY=0.5;exitDx=0;exitDy=0;" edge="1" parent="1" source="37">
                    <mxGeometry width="50" height="50" relative="1" as="geometry">
                        <mxPoint x="495" y="550" as="sourcePoint"/>
                        <mxPoint x="119" y="330" as="targetPoint"/>
                    </mxGeometry>
                </mxCell>
                <mxCell id="43" value="" style="endArrow=classic;html=1;fontColor=#0e2723;strokeWidth=3;strokeColor=#830C17;" edge="1" parent="1">
                    <mxGeometry width="50" height="50" relative="1" as="geometry">
                        <mxPoint x="95" y="443" as="sourcePoint"/>
                        <mxPoint x="95" y="403" as="targetPoint"/>
                    </mxGeometry>
                </mxCell>
            </root>
        </mxGraphModel>
    </diagram>
</mxfile>